<svg width="30" height="30" viewBox="0 0 30 30" fill="none" xmlns="http://www.w3.org/2000/svg">
<path d="M13.125 20.625C14.1099 20.625 15.0852 20.431 15.9951 20.0541C16.9051 19.6772 17.7319 19.1248 18.4283 18.4283C19.1248 17.7319 19.6772 16.9051 20.0541 15.9951C20.431 15.0852 20.625 14.1099 20.625 13.125C20.625 12.1401 20.431 11.1648 20.0541 10.2549C19.6772 9.34495 19.1248 8.51816 18.4283 7.82172C17.7319 7.12528 16.9051 6.57283 15.9951 6.19592C15.0852 5.81901 14.1099 5.62502 13.125 5.62502C11.1359 5.62502 9.22824 6.41519 7.82172 7.82172C6.41519 9.22824 5.62502 11.1359 5.62502 13.125C5.62502 15.1141 6.41519 17.0218 7.82172 18.4283C9.22824 19.8348 11.1359 20.625 13.125 20.625ZM21.025 19.2575L25.5 23.7325C25.6193 23.8479 25.7144 23.9859 25.7799 24.1385C25.8453 24.291 25.8796 24.4551 25.8809 24.621C25.8823 24.787 25.8505 24.9516 25.7876 25.1052C25.7246 25.2587 25.6317 25.3982 25.5142 25.5155C25.3968 25.6328 25.2572 25.7255 25.1035 25.7883C24.9498 25.851 24.7852 25.8825 24.6192 25.8809C24.4533 25.8794 24.2893 25.8448 24.1368 25.7792C23.9844 25.7136 23.8465 25.6182 23.7313 25.4988L19.2563 21.0238C17.2468 22.5836 14.7185 23.319 12.186 23.0803C9.65341 22.8415 7.30702 21.6467 5.62446 19.7388C3.94189 17.831 3.04962 15.3537 3.1293 12.8112C3.20898 10.2686 4.25461 7.85205 6.05333 6.05333C7.85205 4.25461 10.2686 3.20898 12.8112 3.1293C15.3537 3.04962 17.831 3.94189 19.7388 5.62446C21.6467 7.30702 22.8415 9.65341 23.0803 12.186C23.319 14.7185 22.5836 17.2468 21.0238 19.2563L21.025 19.2575Z" fill="#2A3855"/>
</svg>
