<svg width="72" height="439" viewBox="0 0 72 439" fill="none" xmlns="http://www.w3.org/2000/svg">
<rect x="0.54425" y="0.768555" width="71" height="438" fill="#385594"/>
<path d="M47.9843 34.7512L25.2643 34.3512L24.9443 37.7112C24.1976 37.7112 23.3976 37.4845 22.5442 37.0312L22.5443 27.8312L23.9443 27.7112C24.3709 28.9379 24.6909 30.1512 24.9043 31.3512C26.6376 31.2979 30.2109 31.2045 35.6243 31.0712C41.0376 30.9645 45.2243 30.8712 48.1843 30.7912C48.3976 29.7245 48.7176 28.5245 49.1443 27.1912L50.5443 27.3112L50.5443 37.3112C49.6909 37.7645 48.8909 37.9912 48.1443 37.9912C48.0376 36.6312 47.9843 35.5512 47.9843 34.7512ZM43.3443 54.1065C43.3443 56.6665 42.7043 58.5199 41.4243 59.6665C40.1709 60.8132 38.2509 61.3865 35.6642 61.3865C34.9176 61.3865 31.4509 61.2799 25.2642 61.0665L24.9442 64.4265C24.1976 64.4265 23.3976 64.1999 22.5442 63.7465L22.5442 54.5465L23.9442 54.4265C24.3709 55.6532 24.6909 56.8532 24.9042 58.0265C31.8909 57.8665 35.7709 57.7199 36.5443 57.5865C37.3443 57.4799 38.0376 57.2932 38.6242 57.0265C39.2109 56.7599 39.6243 56.3599 39.8643 55.8265C40.1043 55.2932 40.2243 54.5865 40.2243 53.7065C40.2243 51.9465 39.7976 50.2399 38.9443 48.5865C32.8643 48.4265 28.3042 48.3199 25.2642 48.2665L24.9442 51.6265C24.1976 51.6265 23.3976 51.3999 22.5442 50.9465L22.5442 41.7465L23.9442 41.6265C24.3709 42.8532 24.6909 44.0532 24.9042 45.2265C31.6776 45.0665 36.6909 44.9332 39.9443 44.8265C40.0243 43.3599 40.1843 42.1865 40.4243 41.3065L42.5043 41.4665C42.9042 42.9065 43.1042 44.9999 43.1042 47.7465C42.6243 48.0665 41.9309 48.3065 41.0242 48.4665C41.6376 49.6132 42.1709 50.7599 42.6243 51.9065C43.1043 53.0799 43.3443 53.8132 43.3443 54.1065ZM43.3442 78.755C43.3442 81.315 42.7042 83.1683 41.4242 84.315C40.1709 85.4616 38.2509 86.035 35.6642 86.035C34.9176 86.035 31.4509 85.9283 25.2642 85.715L24.9442 89.075C24.1976 89.075 23.3976 88.8483 22.5442 88.395L22.5442 79.195L23.9442 79.075C24.3709 80.3016 24.6909 81.5016 24.9042 82.675C31.8909 82.515 35.7709 82.3683 36.5442 82.235C37.3442 82.1283 38.0376 81.9416 38.6242 81.675C39.2109 81.4083 39.6242 81.0083 39.8642 80.475C40.1042 79.9416 40.2242 79.235 40.2242 78.355C40.2242 76.595 39.7976 74.8883 38.9442 73.235C32.8642 73.075 28.3042 72.9683 25.2642 72.915L24.9442 76.275C24.1976 76.275 23.3976 76.0483 22.5442 75.595L22.5442 66.395L23.9442 66.275C24.3709 67.5016 24.6909 68.7016 24.9042 69.875C31.6776 69.715 36.6909 69.5816 39.9442 69.475C40.0242 68.0083 40.1842 66.835 40.4242 65.955L42.5042 66.115C42.9042 67.555 43.1042 69.6483 43.1042 72.395C42.6242 72.715 41.9309 72.955 41.0242 73.115C41.6376 74.2616 42.1709 75.4083 42.6242 76.555C43.1042 77.7283 43.3442 78.4616 43.3442 78.755ZM24.4642 100.163C24.4642 102.403 25.1576 103.91 26.5442 104.683C27.9576 105.483 29.9576 105.883 32.5442 105.883C36.6509 105.883 39.2242 104.977 40.2642 103.163C40.6909 102.417 40.9042 101.363 40.9042 100.003C40.9042 98.6701 40.6242 97.4034 40.0642 96.2034C38.0109 95.1367 35.6242 94.6034 32.9042 94.6034C30.2909 94.6034 28.2776 94.9501 26.8642 95.6434C25.2642 96.4434 24.4642 97.9501 24.4642 100.163ZM32.5442 90.9234C35.9309 90.9234 38.5709 91.6967 40.4642 93.2434C42.3842 94.7901 43.3442 97.1767 43.3442 100.403C43.3442 103.63 42.4642 105.963 40.7042 107.403C38.9709 108.843 36.3976 109.563 32.9842 109.563C29.5709 109.563 26.8909 108.79 24.9442 107.243C22.9976 105.723 22.0242 103.403 22.0242 100.283C22.0242 97.1634 22.9309 94.8167 24.7442 93.2434C26.5576 91.6967 29.1576 90.9234 32.5442 90.9234ZM40.1842 131.927L22.5442 124.127L22.5442 121.287L40.1442 113.967L40.4642 110.607C41.2109 110.607 42.0109 110.834 42.8642 111.287L42.8642 120.967L41.4642 121.087C41.0909 120.234 40.7976 119.287 40.5842 118.247L29.6642 121.847L26.1442 122.767L26.1442 123.247L29.7042 124.247L40.5842 127.967L41.4642 124.607L42.8642 124.727L42.8642 134.527C42.0109 134.98 41.2109 135.207 40.4642 135.207C40.3309 134.114 40.2376 133.02 40.1842 131.927ZM35.6242 152.121L25.3042 151.921C25.2242 153.067 25.0376 154.214 24.7442 155.361L23.3442 155.281C23.1309 154.854 22.8909 154.081 22.6242 152.961C22.3842 151.867 22.2642 150.787 22.2642 149.721C23.2242 149.241 24.1442 148.974 25.0242 148.921C23.0242 145.881 22.0242 143.747 22.0242 142.521C22.0242 140.627 22.5309 139.107 23.5442 137.961C24.5576 136.814 25.9709 136.241 27.7842 136.241C31.9709 136.241 34.1309 138.801 34.2642 143.921C34.3442 146.907 34.3842 148.414 34.3842 148.441L35.7442 148.401C37.5842 148.347 38.9042 148.001 39.7042 147.361C40.5309 146.721 40.9442 145.574 40.9442 143.921C40.9442 143.227 40.7842 142.481 40.4642 141.681L36.4642 140.721C36.4376 140.587 36.4242 140.361 36.4242 140.041L36.5442 138.401C37.6909 137.974 39.2776 137.747 41.3042 137.721C41.5709 138.227 41.9709 139.387 42.5042 141.201C43.0642 143.014 43.3442 144.174 43.3442 144.681C43.3442 147.401 42.7442 149.321 41.5442 150.441C40.3442 151.561 38.3709 152.121 35.6242 152.121ZM24.7442 143.401C24.7442 144.174 25.6109 145.961 27.3442 148.761L32.3442 148.561C32.1842 146.747 32.0376 145.227 31.9042 144.001C31.7709 142.774 31.4109 141.787 30.8242 141.041C30.2642 140.294 29.3709 139.921 28.1442 139.921C25.8776 139.921 24.7442 141.081 24.7442 143.401ZM25.0242 160.563L40.1042 160.243L40.1042 157.163L41.5042 157.043C41.6909 157.31 42.0376 158.083 42.5442 159.363L47.6642 162.643C47.6109 163.176 47.4776 163.59 47.2642 163.883L42.8642 163.843C42.8642 165.843 42.7309 167.483 42.4642 168.763C41.7442 168.763 40.9576 168.536 40.1042 168.083L40.1042 163.763C36.9042 163.71 32.0509 163.656 25.5442 163.603C25.4642 165.096 25.1976 166.59 24.7442 168.083L23.3442 168.043C23.1042 167.67 22.8242 166.71 22.5042 165.163C22.1842 163.643 22.0242 162.39 22.0242 161.403C22.2376 161.27 22.6909 161.096 23.3842 160.883C24.1042 160.67 24.6509 160.563 25.0242 160.563ZM46.6642 178.709C46.5042 178.016 46.4242 177.336 46.4242 176.669C46.4242 176.029 46.4642 175.389 46.5442 174.749C47.2909 174.589 48.0376 174.509 48.7842 174.509C49.5576 174.509 50.1309 174.536 50.5042 174.589C50.6376 175.176 50.7042 175.789 50.7042 176.429C50.7042 177.096 50.6776 177.803 50.6242 178.549C49.9309 178.709 49.2509 178.789 48.5842 178.789C47.9442 178.789 47.3042 178.763 46.6642 178.709ZM42.4642 171.429C42.8642 173.696 43.0642 175.456 43.0642 176.709C43.0642 177.963 43.0376 178.763 42.9842 179.109C42.3442 179.109 41.6376 179.029 40.8642 178.869C40.0909 178.709 39.7176 178.616 39.7442 178.589L25.2642 178.229L24.9442 181.589C24.1976 181.589 23.3976 181.363 22.5442 180.909L22.5442 171.709L23.9442 171.589C24.3709 172.816 24.6909 174.016 24.9042 175.189C31.5709 175.029 36.5709 174.896 39.9042 174.789C39.9042 173.243 40.0642 172.069 40.3842 171.269L42.4642 171.429ZM24.4642 193.054C24.4642 195.294 25.1576 196.801 26.5442 197.574C27.9576 198.374 29.9576 198.774 32.5442 198.774C36.6509 198.774 39.2242 197.867 40.2642 196.054C40.6909 195.307 40.9042 194.254 40.9042 192.894C40.9042 191.561 40.6242 190.294 40.0642 189.094C38.0109 188.027 35.6242 187.494 32.9042 187.494C30.2909 187.494 28.2776 187.841 26.8642 188.534C25.2642 189.334 24.4642 190.841 24.4642 193.054ZM32.5442 183.814C35.9309 183.814 38.5709 184.587 40.4642 186.134C42.3842 187.681 43.3442 190.067 43.3442 193.294C43.3442 196.521 42.4642 198.854 40.7042 200.294C38.9709 201.734 36.3976 202.454 32.9842 202.454C29.5709 202.454 26.8909 201.681 24.9442 200.134C22.9976 198.614 22.0242 196.294 22.0242 193.174C22.0242 190.054 22.9309 187.707 24.7442 186.134C26.5576 184.587 29.1576 183.814 32.5442 183.814ZM43.3442 217.817C43.3442 220.377 42.7042 222.231 41.4242 223.377C40.1709 224.524 38.2509 225.097 35.6642 225.097C34.9176 225.097 31.4509 224.991 25.2642 224.777L24.9442 228.137C24.1976 228.137 23.3976 227.911 22.5442 227.457L22.5442 218.257L23.9442 218.137C24.3709 219.364 24.6909 220.564 24.9042 221.737C31.8909 221.577 35.7709 221.431 36.5442 221.297C37.3442 221.191 38.0376 221.004 38.6242 220.737C39.2109 220.471 39.6242 220.071 39.8642 219.537C40.1042 219.004 40.2242 218.297 40.2242 217.417C40.2242 215.657 39.7976 213.951 38.9442 212.297C32.8642 212.137 28.3042 212.031 25.2642 211.977L24.9442 215.337C24.1976 215.337 23.3976 215.111 22.5442 214.657L22.5442 205.457L23.9442 205.337C24.3709 206.564 24.6909 207.764 24.9042 208.937C31.6776 208.777 36.6909 208.644 39.9442 208.537C40.0242 207.071 40.1842 205.897 40.4242 205.017L42.5042 205.177C42.9042 206.617 43.1042 208.711 43.1042 211.457C42.6242 211.777 41.9309 212.017 41.0242 212.177C41.6376 213.324 42.1709 214.471 42.6242 215.617C43.1042 216.791 43.3442 217.524 43.3442 217.817Z" fill="white"/>
</svg>
