<svg width="694" height="100" viewBox="0 0 694 100" fill="none" xmlns="http://www.w3.org/2000/svg">
<path d="M643.585 29.1999V27.3999H670.408V29.1999H665.413L675.495 62.3999L686.224 29.1999H680.027V27.3999H693.069V29.1999H688.444L671.148 83.0999C669.113 89.3665 666.831 93.7332 664.303 96.1999C661.775 98.7332 658.692 99.9999 655.054 99.9999C651.416 99.9999 648.549 99.0999 646.452 97.2999C644.356 95.4999 643.307 93.1999 643.307 90.3999C643.307 87.5999 643.986 85.4665 645.342 83.9999C646.699 82.5332 648.487 81.7999 650.707 81.7999C655.825 81.7999 658.384 84.0999 658.384 88.6999C658.384 89.6999 658.199 90.8999 657.829 92.2999H654.592C654.098 93.8332 654.037 95.0999 654.407 96.0999C654.776 97.0999 655.609 97.5999 656.904 97.5999C659.432 97.5999 661.683 96.2332 663.656 93.4999C665.629 90.8332 667.51 86.7332 669.298 81.1999L671.333 74.9999H663.193L647.377 29.1999H643.585Z" fill="#2A3853"/>
<path d="M630.5 30.1999C628.218 30.1999 626.214 31.7999 624.488 34.9999C622.761 38.1999 621.898 41.9999 621.898 46.3999V73.1999H628.465V74.9999H599.607V73.1999H604.694V29.1999H599.607V27.3999H621.898V36.9999C622.699 33.5999 624.241 30.9999 626.523 29.1999C628.804 27.3332 631.394 26.3999 634.292 26.3999C637.19 26.3999 639.533 27.2999 641.322 29.0999C643.171 30.8332 644.096 33.3332 644.096 36.5999C644.096 39.7999 643.418 42.2666 642.062 43.9999C640.705 45.7332 638.608 46.5999 635.772 46.5999C632.997 46.5999 630.931 45.5999 629.575 43.5999C628.28 41.5999 628.126 38.8332 629.112 35.2999H632.442C633.984 31.8999 633.336 30.1999 630.5 30.1999Z" fill="#2A3853"/>
<path d="M571.042 51.4999H573.724V43.7999C573.724 37.4666 573.385 33.2332 572.707 31.0999C572.09 28.8999 570.857 27.7999 569.007 27.7999C567.897 27.7999 566.88 28.1332 565.955 28.7999C565.092 29.3999 564.66 30.2666 564.66 31.3999C564.66 32.4666 564.845 33.5666 565.215 34.6999H567.527C568.021 36.0999 568.267 37.7999 568.267 39.7999C568.267 41.7332 567.497 43.4332 565.955 44.8999C564.413 46.2999 562.471 46.9999 560.128 46.9999C554.825 46.9999 552.173 44.2332 552.173 38.6999C552.173 30.4999 558.617 26.3999 571.505 26.3999C578.842 26.3999 583.899 27.7666 586.674 30.4999C589.51 33.1666 590.928 38.0999 590.928 45.2999V65.5999C590.928 69.0665 591.822 70.7999 593.611 70.7999C595.707 70.7999 596.94 67.3665 597.31 60.4999L598.698 60.5999C598.451 66.4665 597.434 70.4999 595.646 72.6999C593.857 74.8999 590.928 75.9999 586.859 75.9999C579.459 75.9999 575.204 73.5332 574.094 68.5999C573.293 71.1332 572.09 72.9999 570.487 74.1999C568.884 75.3999 566.541 75.9999 563.458 75.9999C554.332 75.9999 549.769 71.9665 549.769 63.8999C549.769 59.1666 551.495 55.9332 554.948 54.1999C558.463 52.3999 563.828 51.4999 571.042 51.4999ZM567.342 63.7999C567.342 67.2665 567.497 69.4999 567.805 70.4999C568.175 71.4999 568.822 71.9999 569.747 71.9999C570.734 71.9999 571.628 71.1665 572.43 69.4999C573.293 67.7665 573.724 65.3999 573.724 62.3999V53.0999H573.077C569.254 53.0999 567.342 56.1332 567.342 62.1999V63.7999Z" fill="#2A3853"/>
<path d="M535.296 30.1999C533.015 30.1999 531.011 31.7999 529.284 34.9999C527.557 38.1999 526.694 41.9999 526.694 46.3999V73.1999H533.261V74.9999H504.403V73.1999H509.49V29.1999H504.403V27.3999H526.694V36.9999C527.496 33.5999 529.037 30.9999 531.319 29.1999C533.6 27.3332 536.19 26.3999 539.088 26.3999C541.987 26.3999 544.33 27.2999 546.118 29.0999C547.968 30.8332 548.893 33.3332 548.893 36.5999C548.893 39.7999 548.214 42.2666 546.858 43.9999C545.501 45.7332 543.405 46.5999 540.568 46.5999C537.793 46.5999 535.728 45.5999 534.371 43.5999C533.076 41.5999 532.922 38.8332 533.909 35.2999H537.238C538.78 31.8999 538.133 30.1999 535.296 30.1999Z" fill="#2A3853"/>
<path d="M483.787 48.1C483.787 41.2333 483.479 36.6333 482.862 34.3C482.246 31.9 481.043 30.7 479.255 30.7C477.467 30.7 475.864 31.9 474.445 34.3C473.027 36.7 472.318 40 472.318 44.2V62.8C472.318 65.6666 472.842 68.1 473.89 70.1C475 72.1 476.542 73.1 478.515 73.1C480.55 73.1 481.937 71.6333 482.677 68.7C483.417 65.7666 483.787 60.6333 483.787 53.3V48.1ZM472.318 0V35C474.661 29.2666 478.669 26.4 484.342 26.4C495.873 26.4 501.639 34.7 501.639 51.3C501.639 59.7666 500.035 66 496.829 70C493.684 74 488.936 75.9999 482.585 75.9999C479.378 75.9999 476.912 75.4666 475.185 74.4C473.521 73.3333 472.38 71.5666 471.763 69.1L471.116 75H450.027V73.1999H455.114V1.8H450.027V0H472.318Z" fill="#2A3853"/>
<path d="M434.268 20.5C431 20.5 428.656 19.6 427.238 17.8C425.882 16 425.203 13.7667 425.203 11.1C425.203 8.43335 425.943 6.23335 427.423 4.50002C428.965 2.76669 431.277 1.90002 434.36 1.90002C437.443 1.90002 439.787 2.70002 441.39 4.30002C442.993 5.83335 443.795 8.06668 443.795 11C443.795 13.8667 443.024 16.1667 441.482 17.9C439.941 19.6333 437.536 20.5 434.268 20.5ZM420.301 27.4H442.962V73.2H448.142V75H420.671V73.2H425.758V29.2H420.301V27.4Z" fill="#2A3853"/>
<path d="M366.59 5H399.888V7.2H390.083V72.8H393.413C398.654 72.8 402.817 71.0666 405.9 67.6C409.044 64.1333 412.22 58.8 415.426 51.6H417.369L415.611 75H366.59V72.8H372.047V7.2H366.59V5Z" fill="#2A3853"/>
<path d="M310.975 75.9999V58.0999H312.085C313.688 63.8999 315.846 67.9666 318.559 70.2999C321.273 72.6333 324.664 73.7999 328.734 73.7999C335.023 73.7999 338.168 71.6333 338.168 67.2999C338.168 65.4333 337.397 64.0333 335.856 63.0999C333.451 61.6333 330.368 60.4999 326.606 59.6999C322.413 58.4999 318.899 56.8999 316.062 54.8999C312.671 52.4999 310.975 48.6999 310.975 43.4999C310.975 38.2999 312.455 34.1666 315.415 31.1C318.374 27.9666 322.321 26.3999 327.254 26.3999C330.275 26.3999 333.389 27.1666 336.596 28.6999C337.767 29.2333 338.661 29.5 339.278 29.5C339.895 29.5 340.419 29.2666 340.85 28.8C341.282 28.3333 341.806 27.4666 342.423 26.2H343.44V41.4999H342.33C339.186 32.8333 334.314 28.5 327.716 28.5C324.818 28.5 322.66 29.0666 321.242 30.2C319.824 31.2666 319.114 32.6333 319.114 34.2999C319.114 35.2999 319.33 36.0999 319.762 36.6999C320.194 37.2333 320.533 37.6333 320.779 37.8999C321.026 38.1666 321.427 38.4666 321.982 38.7999C322.537 39.0666 322.999 39.2999 323.369 39.4999C323.739 39.6333 324.294 39.8333 325.034 40.0999C325.836 40.3666 326.421 40.5333 326.791 40.5999C330.984 41.7333 334.006 42.7333 335.856 43.5999C337.706 44.3999 339.463 45.3999 341.128 46.5999C344.519 49.1333 346.215 53.2333 346.215 58.8999C346.215 64.4999 344.674 68.7666 341.59 71.6999C338.507 74.5666 334.283 75.9999 328.919 75.9999C325.096 75.9999 321.396 75.0333 317.819 73.0999C317.08 72.5666 316.494 72.2999 316.062 72.2999C314.706 72.2999 313.38 73.5333 312.085 75.9999H310.975Z" fill="#2A3853"/>
<path d="M298.98 29.8001L298.147 28.4001C303.882 24.3334 306.749 20.2667 306.749 16.2001C306.749 14.0667 305.917 12.8667 304.252 12.6001L300.367 16.5001C299.134 16.0334 297.993 15.2001 296.945 14.0001C295.958 12.7334 295.465 11.1334 295.465 9.20007C295.465 7.26674 296.174 5.6334 297.592 4.30007C299.011 2.90007 300.86 2.20007 303.142 2.20007C305.485 2.20007 307.397 3.06674 308.876 4.80007C310.418 6.46674 311.189 8.80007 311.189 11.8001C311.189 18.3334 307.119 24.3334 298.98 29.8001Z" fill="#2A3853"/>
<path d="M279.187 22.2L281.777 20.5C282.147 18.4334 281.407 17.4 279.557 17.4C276.905 17.4 275.58 19.6 275.58 24C275.58 25.7334 275.795 27.7334 276.227 30C280.913 33.4 283.256 37.7667 283.256 43.1C283.256 48.3667 281.561 52.4667 278.169 55.4C274.778 58.3333 270.184 59.8 264.388 59.8C261.983 59.8 259.486 59.5333 256.896 59C254.183 60.8667 252.826 62.2667 252.826 63.2C252.826 64.1333 254.799 64.6 258.746 64.6H268.18C282.177 64.6 289.176 70.0333 289.176 80.9C289.176 86.7666 287.049 91.4 282.794 94.8C278.601 98.2666 272.034 100 263.093 100C247.862 100 240.247 96.4333 240.247 89.3C240.247 85.4333 242.621 82.7666 247.369 81.3L252.919 84C252.425 85.9333 252.179 87.7666 252.179 89.5C252.179 95.2333 256.125 98.1 264.018 98.1C268.827 98.1 272.527 97.1333 275.117 95.2C277.707 93.2666 279.002 90.8666 279.002 88C279.002 85.1333 278.2 83.2 276.597 82.2C275.055 81.2666 271.941 80.8 267.255 80.8H258.283C253.288 80.8 249.712 79.9 247.554 78.1C245.396 76.3 244.317 74.1 244.317 71.5C244.317 68.8333 245.087 66.6333 246.629 64.9C248.17 63.1 250.914 60.9 254.861 58.3C247.708 56.1 244.132 51.0333 244.132 43.1C244.132 38.1 245.796 34.0667 249.126 31C252.456 27.9334 257.451 26.4 264.11 26.4C268.118 26.4 271.541 27.2334 274.377 28.9C274.007 27.1 273.822 25.4667 273.822 24C273.822 20.2667 274.747 17.5667 276.597 15.9C278.447 14.2334 280.512 13.4 282.794 13.4C285.076 13.4 286.895 14.0667 288.251 15.4C289.669 16.6667 290.378 18.4334 290.378 20.7C290.378 22.9667 289.824 24.6667 288.714 25.8C287.604 26.8667 286.247 27.4 284.644 27.4C283.102 27.4 281.807 26.9667 280.759 26.1C279.773 25.1667 279.248 23.8667 279.187 22.2ZM259.578 40.9V46.3C259.578 50.7667 259.917 53.8 260.596 55.4C261.335 57 262.415 57.8 263.833 57.8C265.313 57.8 266.361 57.0333 266.978 55.5C267.656 53.9 267.995 50.6667 267.995 45.8V40.9C267.995 35.7 267.687 32.3 267.07 30.7C266.453 29.0333 265.405 28.2 263.925 28.2C262.507 28.2 261.428 29.0667 260.688 30.8C259.948 32.4667 259.578 35.8333 259.578 40.9Z" fill="#2A3853"/>
<path d="M185.286 27.3999H207.577V36.5999C208.564 33.5332 210.074 31.0666 212.109 29.1999C214.144 27.3332 217.227 26.3999 221.359 26.3999C230.916 26.3999 235.695 31.9666 235.695 43.0999V73.1999H240.875V74.9999H214.699V73.1999H218.491V40.6999C218.491 36.6999 218.245 34.1332 217.751 32.9999C217.258 31.7999 216.364 31.1999 215.069 31.1999C213.096 31.1999 211.338 32.5999 209.797 35.3999C208.317 38.1999 207.577 41.5999 207.577 45.5999V73.1999H211.554V74.9999H185.286V73.1999H190.373V29.1999H185.286V27.3999Z" fill="#2A3853"/>
<path d="M156.536 51.4999H159.219V43.7999C159.219 37.4666 158.88 33.2332 158.201 31.0999C157.585 28.8999 156.351 27.7999 154.502 27.7999C153.392 27.7999 152.374 28.1332 151.449 28.7999C150.586 29.3999 150.154 30.2666 150.154 31.3999C150.154 32.4666 150.339 33.5666 150.709 34.6999H153.022C153.515 36.0999 153.762 37.7999 153.762 39.7999C153.762 41.7332 152.991 43.4332 151.449 44.8999C149.908 46.2999 147.965 46.9999 145.622 46.9999C140.319 46.9999 137.668 44.2332 137.668 38.6999C137.668 30.4999 144.111 26.3999 156.999 26.3999C164.337 26.3999 169.393 27.7666 172.168 30.4999C175.004 33.1666 176.423 38.0999 176.423 45.2999V65.5999C176.423 69.0665 177.317 70.7999 179.105 70.7999C181.201 70.7999 182.435 67.3665 182.805 60.4999L184.192 60.5999C183.945 66.4665 182.928 70.4999 181.14 72.6999C179.352 74.8999 176.423 75.9999 172.353 75.9999C164.953 75.9999 160.699 73.5332 159.589 68.5999C158.787 71.1332 157.585 72.9999 155.981 74.1999C154.378 75.3999 152.035 75.9999 148.952 75.9999C139.826 75.9999 135.263 71.9665 135.263 63.8999C135.263 59.1666 136.989 55.9332 140.442 54.1999C143.957 52.3999 149.322 51.4999 156.536 51.4999ZM152.837 63.7999C152.837 67.2665 152.991 69.4999 153.299 70.4999C153.669 71.4999 154.317 71.9999 155.241 71.9999C156.228 71.9999 157.122 71.1665 157.924 69.4999C158.787 67.7665 159.219 65.3999 159.219 62.3999V53.0999H158.571C154.748 53.0999 152.837 56.1332 152.837 62.1999V63.7999Z" fill="#2A3853"/>
<path d="M92.8067 29.1999V27.3999H116.67V29.1999H112.878L121.202 62.8999L129.434 29.1999H123.052V27.3999H135.539V29.1999H131.654L120.555 74.9999H107.883L99.8362 44.2999L91.1418 74.9999H78.7476L65.0585 29.1999H60.8963V27.3999H88.9219V29.1999H83.3723L91.8817 63.1999L98.5413 39.7999L96.229 29.1999H92.8067Z" fill="#2A3853"/>
<path d="M32.2803 73.9999C35.3018 73.9999 37.2133 73.3999 38.0149 72.1999C38.8782 70.9999 39.3099 68.9665 39.3099 66.0999V46.6999H33.3903V44.4999H60.0285V46.6999H56.4212V74.8998H55.0338C53.9239 73.2332 52.3515 72.3998 50.3166 72.3998C49.4533 72.3998 46.8635 72.9999 42.5471 74.1999C38.2924 75.3999 34.6543 75.9999 31.6329 75.9999C21.5819 75.9999 13.7816 73.0665 8.23195 67.1999C2.74398 61.3332 0 52.5332 0 40.7999C0 28.9999 2.86731 19.8999 8.60192 13.4999C14.3982 7.0999 22.1677 3.8999 31.9104 3.8999C35.6718 3.8999 39.4332 4.43324 43.1946 5.4999C47.0177 6.4999 49.2375 6.9999 49.8542 6.9999C50.4708 6.9999 50.9332 6.86657 51.2416 6.5999C51.5499 6.26657 51.889 5.73323 52.259 4.9999H53.2764L54.0164 26.6999H52.3515C49.33 20.2332 46.2777 15.1666 43.1946 11.4999C40.1731 7.76657 36.7817 5.8999 33.0203 5.8999C23.5859 5.8999 18.8687 15.8666 18.8687 35.7999V43.6999C18.8687 53.6999 20.0095 61.2665 22.291 66.3999C24.6342 71.4665 27.964 73.9999 32.2803 73.9999Z" fill="#2A3853"/>
</svg>
